Indiana Jones Quadrilogy

 
http://www.imdb.com/title/tt0082971/
 
http://www.imdb.com/title/tt0087469/
 
http://www.imdb.com/title/tt0097576/
 
http://www.imdb.com/title/tt0367882/

Source  :


Indiana Jones, Raiders of the Lost Ark[1080p HDTV x264-DUAL][GrupoHDS][HAGBARD]

Indiana Jones And The Temple Of Doom 1080p.HDTV.DD5.1.x264-GFM

Indiana.Jones.III.1989.x264.HDTVRip.1080p

Indiana Jones and the kingdom of the crystal skull 1080p AC3



Info:

ID                               : 1
Format                           : AVC
Format/Info                      : Advanced Video Codec
Format profile                   : Baseline@L2.0
Format settings, CABAC           : No
Format settings, ReFrames        : 3 frames
Codec ID                         : avc1
Codec ID/Info                    : Advanced Video Coding
Duration                         : 1h 48mn
Bit rate mode                    : Variable
Bit rate                         : 400 Kbps
Width                            : 480 pixels
Height                           : 208 pixels
Display aspect ratio             : 2.35:1
Frame rate mode                  : Constant
Frame rate                       : 25.000 fps
Color space                      : YUV
Chroma subsampling               : 4:2:0
Bit depth                        : 8 bits
Scan type                        : Progressive
Bits/(Pixel*Frame)               : 0.160
Stream size                      : 310 MiB (75%)
Writing library                  : x264 core 79

ID                               : 2
Format                           : AAC
Format/Info                      : Advanced Audio Codec
Format version                   : Version 4
Format profile                   : LC
Format settings, SBR             : No
Codec ID                         : 40
Duration                         : 1h 48mn
Bit rate mode                    : Variable
Bit rate                         : 128 Kbps
Maximum bit rate                 : 234 Kbps
Channel(s)                       : 2 channels
Channel positions                : Front: L R
Sampling rate                    : 48.0 KHz
Stream size                      : 99.2 MiB (24%)
Language                         : English


Screens:
 
http://img692.imageshack.us/img692/5166/1indianajonesraidersoft.jpg
 
http://img62.imageshack.us/img62/1488/2indianajonesandthetemp.jpg
 
http://img707.imageshack.us/img707/2944/3indianajonesandthelast.jpg
 
http://img441.imageshack.us/img441/354/4indianajonesandtheking.jpg



PLEASE LET THE TORRENT SEED AND SHARE IT WITH ALL YOU KNOW!

Let me know what I can do to be your trusted source of Handheld videos.
 
http://thepiratebay.org/user/on.off.on/ -OOO
	
